<svg version="1.1" id="Layer_1" xmlns="http://www.w3.org/2000/svg" xmlns:xlink="http://www.w3.org/1999/xlink" x="0px" y="0px"
	 width="100%" viewBox="0 0 1024 768" enable-background="new 0 0 1024 768" xml:space="preserve">
<path fill="#000000" opacity="1.000000" stroke="none" 
	d="
M520.877319,609.260742 
	C460.863495,585.553955 417.299438,544.755127 388.802765,487.144379 
	C393.327148,484.517822 394.985077,486.902466 396.393524,489.735870 
	C402.567047,502.155396 409.753326,513.968262 418.163055,524.984070 
	C455.665100,574.107483 504.514435,605.588562 565.613647,615.551697 
	C650.392273,629.376038 722.662659,603.970825 780.927979,540.958313 
	C812.232788,507.102936 830.593140,466.518127 837.938293,420.853546 
	C854.278503,319.267242 800.286987,216.754135 706.913574,172.780899 
	C681.372864,160.752792 654.606995,153.283951 626.383118,151.135406 
	C558.771667,145.988556 499.599854,165.874832 448.847412,210.804825 
	C426.997345,230.148254 409.878357,253.134796 396.629700,279.071594 
	C394.400299,283.436096 394.378357,283.424896 388.589050,282.532013 
	C422.399078,215.590775 474.219360,171.230865 546.479797,152.304688 
	C644.396362,126.658768 750.729187,165.718018 808.327637,255.237366 
	C863.432373,340.880981 857.890564,452.162872 795.950439,531.803772 
	C729.606812,617.106567 618.334900,645.639404 520.877319,609.260742 
z"/>
<path fill="#000000" opacity="1.000000" stroke="none" 
	d="
M415.747986,317.263702 
	C426.483856,328.658356 436.976471,339.796661 448.653168,352.191895 
	C448.653168,343.017944 448.653442,335.329163 448.653137,327.640350 
	C448.652496,313.014740 448.637573,313.059082 434.850647,308.465790 
	C432.902435,307.816742 429.151642,307.979065 430.262268,304.654388 
	C431.316864,301.497559 431.783691,296.819611 436.601624,296.712982 
	C447.756348,296.466217 458.919220,296.469666 470.077209,296.561981 
	C473.176147,296.587616 474.581940,301.858337 472.474396,305.330353 
	C471.886993,306.298096 471.019562,307.232880 470.057861,307.814575 
	C462.901489,312.143219 461.650055,318.536621 461.892029,326.485443 
	C462.449341,344.795044 462.132843,363.133850 461.989929,381.459381 
	C461.968445,384.214294 463.450592,387.720032 459.964386,389.556641 
	C456.870575,391.186584 448.715027,389.732574 446.375061,387.261261 
	C437.097717,377.463013 427.876129,367.612030 418.629791,357.784454 
	C411.025421,349.702026 403.415344,341.624969 395.053711,332.744690 
	C395.053711,346.176147 395.055359,358.396179 395.052399,370.616241 
	C395.051788,373.150635 396.854340,373.942749 398.835541,374.596466 
	C402.786926,375.900238 406.728058,377.235046 410.681793,378.531616 
	C411.941956,378.944885 413.299072,379.115875 413.400574,380.917511 
	C413.613251,384.692200 408.687225,390.079742 404.732452,390.106903 
	C395.236359,390.172180 385.739136,390.170319 376.243225,390.092041 
	C374.199158,390.075195 371.484558,390.879669 370.571350,388.203430 
	C369.594147,385.339783 369.508942,382.293732 371.623444,379.678101 
	C371.935425,379.292175 372.275146,378.869781 372.697693,378.640808 
	C381.394012,373.928284 382.035614,366.092926 381.698669,357.344269 
	C381.230927,345.200134 381.379822,333.018951 381.694855,320.864777 
	C381.814178,316.261292 380.542938,313.153931 376.277740,311.364716 
	C375.362061,310.980591 374.439514,310.511047 373.673920,309.890930 
	C371.785828,308.361664 368.078003,308.421143 368.741730,304.598450 
	C369.569580,299.830536 372.979370,297.302399 377.224030,296.463623 
	C390.132935,293.912720 400.230072,297.481934 407.655182,308.633514 
	C409.746552,311.774475 412.860016,314.234833 415.747986,317.263702 
z"/>
<path fill="#000000" opacity="1.000000" stroke="none" 
	d="
M565.326721,367.054840 
	C565.327148,375.332123 565.327148,383.119415 565.327148,391.120239 
	C559.878784,391.855927 555.267578,389.985840 550.475281,390.033936 
	C528.485291,390.254700 506.491699,390.161621 484.499756,390.083649 
	C482.191254,390.075470 478.921692,391.172241 478.097015,387.858948 
	C477.262573,384.506470 476.811127,380.662079 480.703461,378.552551 
	C487.819550,374.695953 489.240570,368.747192 488.931519,361.055420 
	C488.343414,346.417542 488.533325,331.733917 488.881744,317.080750 
	C489.002136,312.016357 487.625031,309.248749 482.479889,308.530304 
	C480.393860,308.239014 478.389191,307.364929 476.427948,306.780060 
	C477.279999,298.696991 479.540955,296.580353 486.967468,296.577698 
	C505.460907,296.571167 523.954468,296.536896 542.447754,296.596649 
	C548.122253,296.614990 553.773621,296.641907 559.291382,295.069855 
	C563.098511,293.985168 564.393494,295.559326 564.321289,299.324677 
	C564.171204,307.152313 564.057312,314.993408 564.360229,322.812256 
	C564.551880,327.759125 560.827820,328.178619 557.784546,329.617096 
	C554.573242,331.134979 553.766479,328.388947 552.480530,326.605835 
	C550.727112,324.174683 549.184814,321.585785 547.355591,319.216125 
	C544.638123,315.695862 543.430969,309.954712 539.132263,308.950989 
	C532.408508,307.380981 525.228271,308.166443 518.251892,308.681824 
	C515.652527,308.873840 515.296509,310.877136 515.316284,313.073944 
	C515.365723,318.571533 515.215149,324.073547 515.388733,329.566071 
	C515.455139,331.665466 514.064392,334.956299 517.326172,335.456177 
	C520.731812,335.978119 524.725525,337.210052 527.501038,333.551117 
	C529.312805,331.162720 531.029358,328.702301 532.803040,326.284729 
	C533.815125,324.905151 534.998230,323.955811 536.862976,323.732513 
	C542.504089,323.056976 543.744019,324.006683 543.882935,329.678467 
	C544.086670,337.997925 543.147400,346.304474 543.786316,354.641724 
	C544.209717,360.166992 539.049866,360.513733 535.711121,362.042938 
	C532.204102,363.649109 531.976440,359.769684 530.730225,357.913452 
	C529.528748,356.123718 528.401123,354.219635 527.634766,352.215271 
	C525.641113,347.001129 521.378296,348.209503 517.507507,348.506744 
	C515.606262,348.652740 515.357422,350.335602 515.354553,351.912872 
	C515.340820,359.410034 515.362000,366.907257 515.329346,374.404266 
	C515.319275,376.725464 516.425964,377.703552 518.696228,377.687531 
	C524.693604,377.645111 530.691711,377.628235 536.688965,377.671234 
	C539.292053,377.689880 540.457275,375.844666 541.705750,374.076874 
	C545.741272,368.362457 549.771973,362.644440 553.770203,356.903900 
	C555.157776,354.911743 556.452026,352.986908 559.388733,354.392273 
	C562.162842,355.719788 565.703430,356.166992 565.340454,360.569458 
	C565.176758,362.554810 565.321533,364.565582 565.326721,367.054840 
z"/>
<path fill="#000000" opacity="1.000000" stroke="none" 
	d="
M601.981323,352.080261 
	C595.309204,347.943420 588.636597,344.452911 583.124451,339.258087 
	C572.466553,329.213867 572.032532,319.734985 581.838867,308.836090 
	C593.441284,295.941071 607.830200,291.567169 624.740112,294.932770 
	C630.767944,296.132507 636.899536,296.756744 642.842834,298.460236 
	C645.344910,299.177368 646.417847,300.440125 646.387634,303.033478 
	C646.306152,310.030060 646.302795,317.029236 646.401306,324.025482 
	C646.442810,326.973358 645.265259,328.357819 642.280884,328.232697 
	C640.451782,328.155945 638.595886,328.058655 636.787659,328.272217 
	C632.632568,328.763000 629.933960,327.370117 628.159424,323.344513 
	C626.485413,319.546906 623.837891,316.239441 620.814270,313.315979 
	C619.004272,311.565979 617.055237,309.983246 614.659668,309.131927 
	C611.057800,307.851990 607.264221,307.162079 604.559875,310.576691 
	C601.998840,313.810242 602.726440,317.537201 604.645386,320.903290 
	C606.775085,324.639008 610.277100,326.991211 613.839722,329.172180 
	C620.516235,333.259521 627.262878,337.232239 633.951965,341.299225 
	C637.953552,343.732178 641.655579,346.552155 644.770569,350.090576 
	C651.650330,357.905396 652.032471,366.596313 645.252808,374.437805 
	C633.600281,387.915405 619.346191,394.839294 600.992188,391.743896 
	C593.791382,390.529419 586.514160,389.732422 579.334778,388.295013 
	C575.674255,387.562103 573.863586,385.797577 573.994324,381.854248 
	C574.198486,375.696289 574.186584,369.523376 574.017151,363.363647 
	C573.909912,359.463837 575.590332,357.866333 579.366272,358.071381 
	C581.026855,358.161499 582.711365,358.204010 584.360535,358.032654 
	C588.279968,357.625366 590.747498,359.043121 592.763855,362.654633 
	C596.728516,369.755920 601.886597,375.781372 610.339417,377.945679 
	C614.680359,379.057159 618.502136,378.331055 620.863831,374.496246 
	C623.170776,370.750427 621.818054,367.137054 618.968384,364.039551 
	C614.254578,358.915741 608.086914,355.857941 601.981323,352.080261 
z"/>
<path fill="#000000" opacity="1.000000" stroke="none" 
	d="
M315.338501,361.020691 
	C315.331451,375.138672 315.343994,375.079285 328.997589,377.966400 
	C331.373657,378.468811 333.990692,378.321899 336.103790,379.709991 
	C335.198090,387.908997 332.878387,390.126312 325.333771,390.128357 
	C311.507538,390.132172 297.681122,390.144775 283.855194,390.077484 
	C281.641541,390.066711 278.715240,390.724121 278.117706,387.547241 
	C277.581635,384.697021 276.606232,381.070892 279.906433,379.386108 
	C288.938843,374.775116 289.260071,367.032562 288.954102,358.306183 
	C288.464050,344.330444 288.652893,330.322113 288.910553,316.334076 
	C288.991943,311.915588 287.772949,309.506989 283.247803,308.712128 
	C280.892426,308.298401 278.356537,307.852478 276.381958,306.260895 
	C278.157196,297.727509 279.457153,296.575928 287.304321,296.574493 
	C305.128540,296.571167 322.952759,296.559753 340.776917,296.595856 
	C347.106720,296.608673 353.427856,296.767365 359.618866,295.027557 
	C362.645569,294.177002 364.362885,295.092102 364.316132,298.635376 
	C364.206299,306.962860 364.202698,315.293762 364.309570,323.621307 
	C364.366608,328.068298 360.614319,328.126770 357.992523,329.543823 
	C355.203369,331.051361 354.110260,328.901001 352.863708,327.148682 
	C349.098206,321.855438 345.338379,316.558044 341.610138,311.238586 
	C340.520874,309.684387 339.384674,308.378082 337.243195,308.397400 
	C331.413757,308.449890 325.583557,308.415131 319.753784,308.441254 
	C316.350983,308.456512 315.177704,310.243256 315.295074,313.559357 
	C315.483521,318.883270 315.227448,324.222748 315.406067,329.547363 
	C315.476532,331.648621 314.070831,334.940857 317.311493,335.456940 
	C320.715881,335.999084 324.707458,337.209625 327.509369,333.608826 
	C329.247314,331.375336 330.964020,329.113525 332.513763,326.748779 
	C334.060577,324.388519 336.137054,323.739624 338.864471,323.664215 
	C342.493530,323.563812 344.056152,324.980988 344.031738,328.587982 
	C343.968597,337.915771 344.072906,347.244843 343.991272,356.572357 
	C343.961060,360.024048 338.328888,364.861725 334.778320,364.813538 
	C333.062073,364.790253 332.579102,363.482300 332.010864,362.326904 
	C330.467957,359.189911 328.706390,356.112976 327.595398,352.821899 
	C325.853088,347.660675 321.954529,347.980255 317.879547,348.399017 
	C315.687317,348.624268 315.360199,350.238770 315.356384,352.032623 
	C315.350403,354.864532 315.344452,357.696411 315.338501,361.020691 
z"/>
<path fill="#000000" opacity="1.000000" stroke="none" 
	d="
M716.298340,323.012634 
	C716.297607,339.171875 716.455872,354.836639 716.195618,370.494385 
	C716.120789,374.991699 717.376465,377.238159 721.987061,377.844513 
	C724.316101,378.150787 727.012146,378.198944 728.855286,380.169800 
	C726.789612,389.068420 725.541138,390.103485 716.959167,390.109283 
	C706.129028,390.116638 695.298645,390.155914 684.468872,390.098389 
	C682.423584,390.087494 679.641357,390.797974 679.046143,387.907074 
	C678.494629,385.228394 677.903503,382.263702 680.136414,379.840363 
	C680.360840,379.596802 680.602966,379.331970 680.892517,379.191528 
	C689.755066,374.891083 690.160156,367.227234 689.887573,358.650085 
	C689.411377,343.669617 689.784119,328.662933 689.720398,313.667603 
	C689.712585,311.824219 690.572144,309.230743 687.847046,308.615082 
	C685.270874,308.033020 682.588013,307.901917 680.704407,310.671173 
	C676.395691,317.005707 671.932190,323.234772 667.563599,329.528900 
	C666.405090,331.198090 665.332886,333.257050 662.886353,332.093231 
	C660.194397,330.812683 656.063599,330.774292 655.979187,326.607544 
	C655.783447,316.949432 655.892090,307.284088 655.963562,297.622314 
	C655.984497,294.790039 657.963318,294.562683 660.184998,294.882416 
	C686.043823,298.603821 712.045410,295.721985 737.969727,296.480621 
	C740.726929,296.561340 743.521118,295.509003 746.292236,294.953064 
	C749.047058,294.400360 750.338562,295.407440 750.322205,298.310638 
	C750.270508,307.474182 750.227722,316.639618 750.365112,325.801544 
	C750.426270,329.874725 747.335876,330.456543 744.666138,331.706116 
	C741.862488,333.018311 740.304138,331.462372 738.875122,329.409729 
	C734.782288,323.531006 730.680603,317.658508 726.575073,311.788696 
	C725.313782,309.985413 724.000732,308.451904 721.441650,308.344116 
	C718.005249,308.199249 715.991272,309.065094 716.260559,313.021088 
	C716.475098,316.172119 716.300232,319.349670 716.298340,323.012634 
z"/>
<path fill="#000000" opacity="1.000000" stroke="none" 
	d="
M305.921906,419.034424 
	C316.693298,419.008728 317.590179,420.242371 315.379913,430.821442 
	C314.991943,432.678345 314.465698,433.982300 312.341400,434.009918 
	C310.489532,434.033997 309.828461,432.862274 309.260925,431.322845 
	C308.622406,429.590881 309.420349,426.705475 306.697601,426.474792 
	C302.085266,426.084015 297.505859,424.658539 292.826965,425.637878 
	C291.699036,425.873962 291.402679,426.983154 291.397583,428.016235 
	C291.370697,433.474609 291.384979,438.933136 291.384979,445.133514 
	C296.637604,444.875092 301.389984,444.766052 306.116669,444.358887 
	C308.687500,444.137421 310.334381,444.416107 310.376648,447.531586 
	C310.415527,450.401520 309.958649,452.535461 306.381378,452.262970 
	C302.735352,451.985260 299.076782,451.857422 295.436584,451.523438 
	C292.720703,451.274323 291.294128,452.230560 291.355072,455.083618 
	C291.397736,457.080475 291.501892,459.092865 291.318573,461.074249 
	C290.886780,465.740204 291.300690,469.488373 297.551727,468.932068 
	C299.231232,468.782593 300.966400,469.599670 300.973724,471.757172 
	C300.981628,474.088440 299.171082,474.258698 297.443481,474.265686 
	C291.450226,474.289978 285.456818,474.278320 279.463531,474.260284 
	C278.102753,474.256165 276.581146,474.160950 276.173645,472.605286 
	C275.658905,470.640106 277.263824,469.983673 278.722198,469.582825 
	C281.796997,468.737762 282.774841,466.829376 282.733551,463.681274 
	C282.582886,452.195496 282.685699,440.706512 282.672180,429.218719 
	C282.669647,427.067902 282.990417,424.650574 279.817963,424.360992 
	C277.860901,424.182312 276.569489,423.373291 276.989746,421.206451 
	C277.418060,418.998016 279.346985,419.091156 280.960571,419.078644 
	C289.118011,419.015411 297.276184,419.040466 305.921906,419.034424 
z"/>
<path fill="#000000" opacity="1.000000" stroke="none" 
	d="
M456.062500,459.905518 
	C456.050110,454.586334 456.017120,449.753784 456.031281,444.921387 
	C456.038696,442.383514 455.751129,440.194519 452.393311,440.231903 
	C450.558472,440.252350 449.719452,439.086273 449.657227,437.343170 
	C449.597473,435.669800 450.817688,435.196289 452.110626,434.649384 
	C459.486023,431.529449 462.683746,432.657806 465.736603,439.924927 
	C469.069458,438.137451 472.293518,436.181793 475.700806,434.627960 
	C482.832703,431.375641 489.795349,435.537323 490.198364,443.448883 
	C490.528656,449.932037 490.364685,456.443542 490.311890,462.941589 
	C490.288757,465.782104 490.336243,468.355286 494.031708,468.832642 
	C495.349457,469.002869 496.038574,469.979248 495.912201,471.344666 
	C495.778198,472.792084 495.142090,474.065338 493.558594,474.103546 
	C489.066101,474.211975 484.537720,474.476868 480.085846,474.041962 
	C477.177917,473.757843 476.948273,471.504913 479.279175,470.007233 
	C481.306976,468.704346 481.804291,467.158875 481.784332,465.033112 
	C481.729553,459.201263 481.866730,453.364777 481.685608,447.537689 
	C481.504181,441.699982 478.604218,439.818115 473.107147,441.675018 
	C466.506195,443.904816 464.918518,446.072815 464.922699,452.893005 
	C464.924561,455.892487 464.937286,458.892181 464.975372,461.891388 
	C465.012878,464.843872 464.442413,468.030518 468.530914,469.111115 
	C469.769623,469.438538 469.991302,470.803894 469.667969,472.069427 
	C469.341736,473.346130 468.534637,474.145813 467.211700,474.159119 
	C462.548859,474.206085 457.885132,474.215118 453.222290,474.175720 
	C452.191071,474.167023 451.232910,473.773254 451.009674,472.566376 
	C450.845062,471.676300 451.099884,470.696808 451.904297,470.421906 
	C457.142212,468.631653 455.923035,464.244751 456.062500,459.905518 
z"/>
<path fill="#000000" opacity="1.000000" stroke="none" 
	d="
M607.642883,470.023834 
	C604.392029,462.281677 606.278687,454.519775 605.786682,446.934723 
	C605.578796,443.730103 606.690735,439.876526 601.256958,440.100586 
	C599.888000,440.157074 599.447937,438.765350 599.186768,437.617889 
	C598.928833,436.484955 599.562317,435.648346 600.536255,435.217194 
	C603.454041,433.925598 606.566650,432.851318 609.708435,433.319153 
	C612.855896,433.787842 614.390503,436.065155 614.345581,439.428711 
	C614.254395,446.258881 614.281067,453.091827 614.354797,459.922607 
	C614.417603,465.739990 616.082825,467.837769 620.348145,467.774200 
	C626.363037,467.684540 630.567993,464.337433 630.588989,459.496490 
	C630.611328,454.332794 630.493164,449.168579 630.471130,444.004486 
	C630.461243,441.691681 629.806458,440.106628 627.055664,440.268402 
	C625.129822,440.381653 623.817810,439.550568 623.709595,437.446075 
	C623.608337,435.477539 625.025574,434.946625 626.556213,434.585114 
	C628.171387,434.203705 629.780579,433.760437 631.418152,433.517883 
	C636.512817,432.763336 638.989990,434.752167 639.074341,439.939270 
	C639.196350,447.435089 639.086548,454.934509 639.110352,462.432251 
	C639.118835,465.102020 638.692383,467.916687 643.058838,467.623413 
	C645.539490,467.456757 646.041260,469.613251 645.075317,471.497864 
	C643.547058,474.479645 635.792480,475.810730 633.691284,473.205780 
	C631.158813,470.066223 628.868835,470.570587 625.971802,472.231659 
	C624.399780,473.132965 622.627319,473.723938 620.892700,474.295593 
	C614.674194,476.344910 612.304749,475.606262 607.642883,470.023834 
z"/>
<path fill="#000000" opacity="1.000000" stroke="none" 
	d="
M343.564697,433.338318 
	C346.615112,434.614441 347.416443,436.706848 347.374451,439.499298 
	C347.271759,446.330536 347.267883,453.165985 347.384277,459.996979 
	C347.479889,465.606567 349.364594,467.828247 353.594055,467.775208 
	C359.548859,467.700531 363.616821,464.329803 363.656281,459.369415 
	C363.694733,454.536682 363.618500,449.702820 363.683197,444.870636 
	C363.717529,442.308929 363.535248,440.096558 360.099182,440.279205 
	C358.361420,440.371521 357.216370,439.531525 356.923737,437.780975 
	C356.598724,435.836914 357.943115,435.088287 359.461609,434.677032 
	C361.544983,434.112762 363.647186,433.495453 365.780609,433.265411 
	C369.705292,432.842194 372.130981,435.212250 372.197388,439.648590 
	C372.312134,447.312988 372.260498,454.980591 372.213715,462.646454 
	C372.196259,465.510925 372.104370,467.963989 376.328094,467.618958 
	C378.625031,467.431335 379.392334,469.580170 378.361176,471.498047 
	C376.599884,474.773895 368.945099,475.882812 366.580475,473.014038 
	C364.376343,470.339966 362.606140,470.655396 359.806549,471.956757 
	C345.252258,478.722321 338.929016,474.559143 338.870544,458.411041 
	C338.854248,453.911346 338.828552,449.411255 338.874390,444.912048 
	C338.900208,442.376038 338.720703,440.134613 335.299469,440.260498 
	C333.420288,440.329651 332.618347,439.160309 332.488861,437.454712 
	C332.361542,435.778778 333.556305,435.163025 334.874298,434.701996 
	C337.560760,433.762238 340.304077,433.132874 343.564697,433.338318 
z"/>
<path fill="#000000" opacity="1.000000" stroke="none" 
	d="
M735.469604,467.789734 
	C739.271179,468.137024 742.516418,467.545319 745.680420,466.376434 
	C747.052856,465.869415 748.340393,465.787872 748.952637,467.480652 
	C749.402161,468.723450 748.961182,469.626160 747.931763,470.503082 
	C741.184021,476.251007 730.968445,476.833374 723.661316,471.810455 
	C716.222351,466.697021 713.370483,455.733612 716.988281,446.158173 
	C720.360657,437.232300 728.500854,431.716705 737.020325,432.827393 
	C742.470825,433.537964 746.732544,436.251160 749.072021,441.395142 
	C751.888916,447.588593 748.562073,452.925812 741.702515,453.003571 
	C737.221924,453.054382 732.733704,452.645447 728.252563,452.381256 
	C724.682800,452.170807 723.902405,453.890015 724.743713,457.035492 
	C726.213257,462.529846 728.751038,466.931061 735.469604,467.789734 
M730.374451,439.490448 
	C727.718323,440.903320 726.396301,443.149506 725.732910,446.727448 
	C731.191956,446.545563 736.158813,447.201752 741.743042,445.925385 
	C739.469604,440.741211 736.143005,438.655518 730.374451,439.490448 
z"/>
<path fill="#000000" opacity="1.000000" stroke="none" 
	d="
M412.387177,438.015137 
	C412.604095,439.279144 412.179565,440.373291 413.228394,441.215942 
	C415.641388,440.274933 416.896545,438.023621 418.516968,436.208710 
	C421.034088,433.389465 424.159088,432.933350 427.622528,433.633881 
	C429.888428,434.092163 431.215149,435.515137 431.044647,437.839325 
	C430.838257,440.653168 430.443359,443.463196 429.946777,446.242126 
	C429.631470,448.006378 428.653748,449.276154 426.548553,449.185028 
	C424.372284,449.090790 423.786591,447.735260 423.657257,445.872894 
	C423.555664,444.410278 423.684265,442.829956 422.185272,441.876984 
	C415.162933,444.658386 412.402679,448.527435 412.385956,455.601654 
	C412.380829,457.766571 412.585083,459.953491 412.346527,462.091614 
	C411.913086,465.976257 413.438416,468.033997 417.349670,468.485626 
	C419.177063,468.696625 421.208618,469.075226 420.812103,471.710388 
	C420.450806,474.111603 418.557251,474.284363 416.638245,474.283325 
	C411.642426,474.280640 406.646484,474.286896 401.650879,474.252167 
	C400.497223,474.244141 399.213959,474.276031 398.770752,472.839172 
	C398.270325,471.216827 399.202515,470.199707 400.556793,469.760651 
	C403.537811,468.794250 403.990540,466.619476 403.943146,463.883728 
	C403.833496,457.557281 403.867523,451.227692 403.902435,444.899719 
	C403.916473,442.353302 403.692841,440.150238 400.302704,440.247711 
	C398.429474,440.301575 397.642517,439.106018 397.524475,437.403503 
	C397.407410,435.715118 398.616028,435.112396 399.944366,434.702118 
	C405.455048,432.999939 410.656342,431.372498 412.387177,438.015137 
z"/>
<path fill="#000000" opacity="1.000000" stroke="none" 
	d="
M670.806824,450.062866 
	C670.807617,447.909454 670.770508,446.242279 670.818726,444.577545 
	C670.888245,442.179321 670.544312,440.174561 667.434570,440.284821 
	C665.679993,440.347046 664.572510,439.494446 664.300171,437.744720 
	C663.992493,435.767883 665.428528,435.094604 666.908325,434.696869 
	C669.150513,434.094299 671.444885,433.241364 673.710693,433.260376 
	C678.975769,433.304565 679.463196,437.291138 679.457031,442.117889 
	C681.755127,439.815094 683.610718,438.035706 685.373474,436.168762 
	C687.477478,433.940552 690.044800,433.011230 693.033203,433.357117 
	C696.094604,433.711426 697.994080,435.185822 697.593079,438.621582 
	C697.304138,441.096832 697.183411,443.597900 696.767090,446.049988 
	C696.478516,447.749268 695.699646,449.192993 693.532776,449.192383 
	C691.345947,449.191742 690.724487,447.818146 690.414734,446.029388 
	C690.160706,444.562714 689.853821,443.105194 689.568298,441.633240 
	C682.931274,443.778900 679.353821,448.470825 679.347839,454.926819 
	C679.345947,456.926147 679.562866,458.953796 679.304260,460.919067 
	C678.713928,465.405579 679.887451,468.360382 684.969604,468.663727 
	C686.667053,468.765045 687.790527,469.726074 687.615540,471.603851 
	C687.418762,473.714874 685.987610,474.285706 684.105164,474.278870 
	C679.107056,474.260712 674.108765,474.295227 669.110840,474.260742 
	C667.628784,474.250488 665.921204,474.363617 665.536560,472.374817 
	C665.204285,470.656830 666.535889,470.047546 667.834351,469.633820 
	C670.393127,468.818512 670.866943,466.923126 670.826111,464.545074 
	C670.746216,459.881348 670.805420,455.215271 670.806824,450.062866 
z"/>
<path fill="#000000" opacity="1.000000" stroke="none" 
	d="
M564.991943,424.989746 
	C568.730103,423.612579 569.572388,425.580475 569.274048,428.345612 
	C568.806458,432.679016 570.496765,434.399109 574.891052,434.197479 
	C577.078857,434.097046 580.836853,433.177643 580.768188,436.718170 
	C580.707275,439.861298 577.711426,442.045624 574.396973,441.761871 
	C569.909729,441.377777 569.067017,443.368011 569.275513,447.268738 
	C569.550476,452.411682 569.402039,457.581024 569.330750,462.737579 
	C569.275696,466.720825 570.785767,468.390106 574.840881,466.939423 
	C575.927673,466.550568 577.095947,466.312286 578.245911,466.198303 
	C579.408325,466.083130 579.997375,466.922760 580.391052,467.918610 
	C580.783691,468.911621 580.824707,469.809021 580.068787,470.693237 
	C578.332581,472.723999 568.903931,475.757385 566.668030,474.844086 
	C561.723389,472.824493 560.592712,468.786591 560.743469,463.879272 
	C560.922241,458.061890 560.741760,452.234192 560.787231,446.411530 
	C560.806274,443.969391 560.840576,441.978455 557.537720,441.339294 
	C554.891052,440.827148 554.888123,437.277771 556.449341,436.820099 
	C562.554565,435.030243 562.256897,429.259155 564.991943,424.989746 
z"/>
<path fill="#000000" opacity="1.000000" stroke="none" 
	d="
M521.234436,474.291077 
	C519.042786,474.092407 516.761841,474.821442 516.140503,472.446381 
	C515.552246,470.197815 517.693909,469.786560 519.160950,469.224304 
	C521.218323,468.435638 521.779846,466.980042 521.763428,464.946716 
	C521.707031,457.976105 521.696045,451.004578 521.749634,444.033997 
	C521.767639,441.690063 521.095642,440.160919 518.453552,440.130066 
	C516.966187,440.112701 515.885071,439.496521 515.719849,437.851227 
	C515.555969,436.218964 516.708008,435.532654 517.883667,434.852539 
	C525.181946,430.630646 530.300232,433.467560 530.318176,441.764771 
	C530.333618,448.901764 530.364136,456.039215 530.302307,463.175690 
	C530.279236,465.839844 530.408264,468.211243 533.782349,468.726990 
	C535.561646,468.998962 536.331299,470.154877 535.984680,471.950073 
	C535.630615,473.782990 534.272278,474.246399 532.655884,474.258362 
	C529.004761,474.285309 525.353394,474.284149 521.234436,474.291077 
z"/>
<path fill="#000000" opacity="1.000000" stroke="none" 
	d="
M530.166626,423.318878 
	C527.765564,426.673950 525.383545,426.845001 522.511169,424.394501 
	C520.138733,422.370514 519.249512,420.402252 521.485840,417.733124 
	C523.130493,415.770111 524.678345,413.726013 527.596191,415.581268 
	C530.371948,417.346130 532.988953,419.218445 530.166626,423.318878 
z"/>
</svg>